<svg class="i-brand" width="422" height="167" viewBox="0 0 422 167" xmlns="http://www.w3.org/2000/svg">
<path d="M207.272 32.144q-9.576-4.032-23.112-4.032-12.672 0-21.96 3.96t-14.112 11.016c-3.216 4.704-4.824 10.032-4.824 15.984s1.464 10.848 4.392 14.688c2.928 3.84 7.056 6.888 12.384 9.144 5.328 2.256 12.072 4.2 20.232 5.832q9.936 1.872 14.184 3.96c2.832 1.392 4.248 3.192 4.248 5.4 0 2.784-1.32 4.92-3.96 6.408-2.64 1.488-6.6 2.232-11.88 2.232q-9.936 0-16.992-3.168c-4.704-2.112-8.928-5.76-12.672-10.944l-12.672 17.28q7.344 8.208 17.424 12.168c6.72 2.64 15.456 3.96 26.208 3.96 7.68 0 14.568-1.152 20.664-3.456 6.096-2.304 10.872-5.664 14.328-10.08q5.184-6.624 5.184-15.696 0-12.528-8.424-19.44c-5.616-4.608-15-8.112-28.152-10.512-6.816-1.248-11.64-2.616-14.472-4.104q-4.248-2.232-4.248-5.832c0-2.88 1.344-5.184 4.032-6.912 2.688-1.728 6.528-2.592 11.52-2.592 5.952 0 11.064 1.128 15.336 3.384 4.272 2.256 7.992 5.784 11.16 10.584l13.968-16.128q-8.208-9.072-17.784-13.104zm214.2 65.232q-4.032 14.4-14.976 21.528c-7.296 4.752-16.176 7.128-26.64 7.128-9.6 0-17.904-1.944-24.912-5.832-7.008-3.888-12.384-9.504-16.128-16.848-3.744-7.344-5.616-16.104-5.616-26.28 0-10.08 1.872-18.816 5.616-26.208 3.744-7.392 9.12-13.032 16.128-16.92 7.008-3.888 15.264-5.832 24.768-5.832q15.552 0 26.352 6.552c7.2 4.368 11.952 10.92 14.256 19.656l-21.744 8.784q-2.016-8.64-6.192-12.096c-2.784-2.304-6.72-3.456-11.808-3.456-7.008 0-12.432 2.52-16.272 7.56-3.84 5.04-5.76 12.36-5.76 21.96 0 9.6 1.848 16.92 5.544 21.96 3.696 5.04 9.048 7.56 16.056 7.56q7.92 0 12.528-3.744 4.608-3.744 6.336-11.808l22.464 6.336zm-160.128 5.76h32.832l6.48 21.456h25.488l-33.264-95.04h-29.664l-33.408 95.04h24.912l6.624-21.456zm27.648-16.848l-6.912-22.752-4.176-14.976h-.288l-3.888 14.832-7.2 22.896h22.464z" fill="#FECA02" fill-rule="evenodd"/>
<path d="M125.984 124.592H98.48L68.96 73.184l-7.2-14.4h-.144l.576 17.856v47.952H60v.086H0V64.592h22v38.086h18.304V29.552h27.504l29.52 51.408 7.2 14.4h.144l-.576-17.856V29.552h21.888v95.04z" fill="#67C4E2"/>
<path d="M22 51.552H0V40.55q0-.27.013-.54t.04-.538q.026-.269.066-.536.04-.267.092-.532.053-.265.119-.527.065-.262.144-.52.078-.258.169-.513.09-.254.194-.503.104-.25.219-.494t.243-.482q.127-.238.266-.47.139-.231.289-.456.15-.224.31-.441.161-.217.333-.426.17-.209.352-.409.182-.2.373-.39.19-.192.39-.373t.41-.353q.208-.17.425-.332.217-.16.441-.31.225-.15.456-.29.232-.138.47-.265.238-.128.482-.243.244-.116.494-.219t.504-.194q.254-.091.512-.17.259-.078.52-.144.262-.065.527-.118.265-.053.532-.092.267-.04.536-.066.269-.027.538-.04.27-.013.54-.013H22v22z" fill="#67C4E2"/>
<path class="i-brand__tagline" d="M174.223 148.98l-1.764 3.005h-1.17l1.368-3.006h1.566zm-28.818 11.087q0 .684.207.945c.138.174.393.261.765.261.252 0 .47-.018.657-.054q.279-.054.657-.198l-.234 1.386a3.38 3.38 0 01-1.332.252q-1.098 0-1.63-.594-.53-.594-.53-1.818V149.34h1.44v10.728zm124.737-5.517c-.738-.834-1.737-1.25-2.997-1.25q-.99 0-1.773.431a3.167 3.167 0 00-1.215 1.152v-5.544h-1.44v13.14h1.26l.09-1.566c.264.528.669.951 1.215 1.27q.819.476 1.863.476c1.26 0 2.259-.417 2.997-1.25.738-.835 1.107-1.978 1.107-3.43 0-1.452-.37-2.595-1.107-3.429zm10.67 5.517c0 .456.07.771.208.945q.207.261.765.261c.252 0 .47-.018.657-.054.186-.036.405-.102.657-.198l-.234 1.386a3.38 3.38 0 01-1.332.252q-1.098 0-1.63-.594c-.353-.396-.53-1.002-.53-1.818V149.34h1.44v10.728zm17.52-10.728v13.14h-1.26l-.09-1.566a3.013 3.013 0 01-1.214 1.27c-.546.317-1.167.476-1.863.476-1.26 0-2.26-.417-2.997-1.25-.738-.835-1.107-1.978-1.107-3.43 0-1.452.369-2.595 1.107-3.429.738-.834 1.737-1.25 2.997-1.25.66 0 1.25.143 1.773.431.522.288.927.672 1.215 1.152v-5.544h1.44zm22.129 0v13.14h-1.26l-.09-1.566a3.013 3.013 0 01-1.215 1.27q-.82.476-1.863.476c-1.26 0-2.26-.417-2.997-1.25-.738-.835-1.107-1.978-1.107-3.43 0-1.452.369-2.595 1.107-3.429.738-.834 1.737-1.25 2.997-1.25.66 0 1.25.143 1.773.431.522.288.927.672 1.215 1.152v-5.544h1.44zm-46.167 2.115q.297.297.783.297.486 0 .783-.297.297-.297.297-.783 0-.486-.297-.783-.297-.297-.783-.297-.486 0-.783.297-.297.297-.297.783 0 .486.297.783zm11.679.297q-.486 0-.783-.297-.297-.297-.297-.783 0-.486.297-.783.297-.297.783-.297.486 0 .783.297.297.297.297.783 0 .486-.297.783-.297.297-.783.297zm-68.91 10.053q1.278-.855 1.836-2.367l-1.44-.54q-.378 1.188-1.26 1.8c-.588.408-1.284.612-2.088.612-1.236 0-2.211-.423-2.925-1.269-.714-.846-1.071-2.013-1.071-3.5 0-.985.168-1.837.504-2.557q.504-1.08 1.422-1.647c.612-.378 1.326-.567 2.142-.567q1.17 0 1.926.522t1.152 1.566l1.422-.666c-.384-.912-.963-1.602-1.737-2.07q-1.161-.702-2.871-.702c-1.092 0-2.052.25-2.88.747-.828.498-1.467 1.21-1.917 2.133-.45.924-.675 2.004-.675 3.24 0 1.248.225 2.331.675 3.25.45.917 1.089 1.625 1.917 2.123q1.242.747 2.916.747c1.116 0 2.1-.285 2.952-.855zM93.72 151.95h4.14v-1.35h-9.72v1.35h4.14v10.53h1.44v-10.53zm153.852 10.71c.948 0 1.722-.27 2.322-.81l-.504-1.206c-.444.444-.954.666-1.53.666q-.612 0-.981-.333c-.246-.222-.37-.549-.37-.98v-5.275h3.33v-1.242h-3.33v-2.556l-1.44.396v2.16h-1.8v1.242h1.8v5.526q.019 1.224.712 1.818.693.594 1.79.594zm-131.382-1.332q1.278 0 1.998.576c.48.384.72.906.72 1.566a2.2 2.2 0 01-.594 1.521c-.396.438-.933.774-1.611 1.008a6.832 6.832 0 01-2.241.351q-2.052 0-3.096-.657c-.696-.438-1.044-1.01-1.044-1.719 0-.408.14-.768.423-1.08.282-.312.669-.534 1.16-.666a2.538 2.538 0 01-.89-.684q-.333-.414-.333-.972c0-.444.12-.813.36-1.107.24-.294.57-.513.99-.657a2.618 2.618 0 01-.981-1.035q-.333-.639-.333-1.43c0-.589.156-1.114.468-1.576q.468-.693 1.314-1.08c.564-.258 1.2-.387 1.908-.387.672 0 1.284.12 1.836.36q.504-1.836 2.538-1.836l.324 1.26c-1.176 0-1.89.33-2.142.99q.54.414.837.99c.198.384.297.81.297 1.278 0 .588-.156 1.113-.468 1.575-.312.462-.75.822-1.314 1.08-.564.258-1.2.387-1.908.387-.528 0-.99-.054-1.386-.162q-.54.126-.774.396c-.156.18-.234.426-.234.738s.108.552.324.72c.216.168.504.252.864.252h2.988zm51.918.576q-.72-.576-1.998-.576h-2.988c-.36 0-.648-.084-.864-.252-.216-.168-.324-.408-.324-.72s.078-.558.234-.738c.156-.18.414-.312.774-.396.396.108.858.162 1.386.162.708 0 1.344-.129 1.908-.387.564-.258 1.002-.618 1.314-1.08.312-.462.468-.987.468-1.575 0-.468-.1-.894-.297-1.278q-.297-.576-.837-.99c.252-.66.966-.99 2.142-.99l-.324-1.26q-2.034 0-2.538 1.836a4.557 4.557 0 00-1.836-.36q-1.062 0-1.908.387c-.564.258-1.002.618-1.314 1.08a2.749 2.749 0 00-.468 1.575q0 .792.333 1.431c.222.426.549.771.98 1.035-.42.144-.75.363-.99.657-.24.294-.36.663-.36 1.107q0 .558.334.972c.222.276.519.504.89.684q-.737.198-1.16.666a1.563 1.563 0 00-.423 1.08c0 .708.348 1.281 1.044 1.72.696.437 1.728.656 3.096.656.816 0 1.563-.117 2.24-.35.679-.235 1.216-.57 1.612-1.009a2.2 2.2 0 00.594-1.52c0-.66-.24-1.183-.72-1.567zm-60.048-3.384c.048-.336.072-.672.072-1.008 0-.792-.156-1.506-.468-2.142a3.585 3.585 0 00-1.386-1.512c-.612-.372-1.338-.558-2.178-.558q-2.034 0-3.141 1.242-1.107 1.242-1.107 3.438c0 1.464.387 2.61 1.16 3.438.775.828 1.84 1.242 3.196 1.242.936 0 1.704-.168 2.304-.504q.9-.504 1.44-1.458l-1.206-.63c-.156.432-.453.762-.891.99q-.657.342-1.647.342c-.828 0-1.503-.252-2.025-.756s-.825-1.212-.91-2.124h6.787zm20.184-4.338c-.66-.588-1.5-.882-2.52-.882-.66 0-1.254.13-1.782.387a2.813 2.813 0 00-1.242 1.197l-.09-1.404h-1.26v9h1.44v-4.788c0-.72.135-1.317.405-1.79q.405-.712 1.035-1.027c.42-.21.87-.315 1.35-.315.672 0 1.209.21 1.61.63.403.42.604 1.098.604 2.034v5.256h1.44v-5.76c0-1.104-.33-1.95-.99-2.538zm11.54.36c-.773-.828-1.838-1.242-3.194-1.242-1.356 0-2.421.414-3.195 1.242q-1.161 1.242-1.161 3.438t1.16 3.438c.775.828 1.84 1.242 3.196 1.242s2.42-.414 3.195-1.242q1.16-1.242 1.16-3.438t-1.16-3.438zm13.858-1.242c1.356 0 2.42.414 3.195 1.242.774.828 1.16 1.974 1.16 3.438 0 1.464-.386 2.61-1.16 3.438-.774.828-1.84 1.242-3.195 1.242-1.356 0-2.421-.414-3.195-1.242q-1.161-1.242-1.161-3.438t1.16-3.438c.775-.828 1.84-1.242 3.196-1.242zm30.816 8.046c-.24.06-.48.09-.72.09q-.36 0-.522-.162c-.108-.108-.162-.27-.162-.486v-4.428c0-1.008-.324-1.77-.972-2.286q-.972-.774-2.574-.774-1.314 0-2.295.594-.981.594-1.341 1.602l1.062.774c.24-.564.579-.99 1.017-1.278.438-.288.957-.432 1.557-.432.66 0 1.176.18 1.548.54.372.36.558.84.558 1.44v.504l-2.394.396c-1.14.192-2.01.537-2.61 1.035-.6.498-.9 1.09-.9 1.773 0 .78.288 1.377.864 1.791.576.414 1.308.621 2.196.621.588 0 1.149-.117 1.683-.35.534-.235.939-.562 1.215-.982.072.48.243.822.513 1.026.27.204.639.306 1.107.306.384 0 .744-.06 1.08-.18l.09-1.134zm44.235-6.804q-1.161-1.242-3.195-1.242t-3.195 1.242c-.774.828-1.161 1.974-1.161 3.438 0 1.464.387 2.61 1.16 3.438.775.828 1.84 1.242 3.196 1.242s2.42-.414 3.195-1.242c.774-.828 1.16-1.974 1.16-3.438 0-1.464-.386-2.61-1.16-3.438zm8.625-1.242q1.53 0 2.52.882t.99 2.538v5.76h-1.44v-5.256c0-.936-.201-1.614-.603-2.034-.402-.42-.94-.63-1.611-.63-.48 0-.93.105-1.35.315q-.63.315-1.035 1.026c-.27.474-.405 1.071-.405 1.791v4.788h-1.44v-9h1.26l.09 1.404c.3-.54.714-.939 1.242-1.197.528-.258 1.122-.387 1.782-.387zm23.01 8.046c-.24.06-.48.09-.72.09s-.414-.054-.522-.162c-.108-.108-.162-.27-.162-.486v-4.428c0-1.008-.324-1.77-.972-2.286-.648-.516-1.506-.774-2.574-.774q-1.314 0-2.295.594c-.654.396-1.101.93-1.341 1.602l1.062.774c.24-.564.579-.99 1.017-1.278.438-.288.957-.432 1.557-.432.66 0 1.176.18 1.548.54.372.36.558.84.558 1.44v.504l-2.394.396c-1.14.192-2.01.537-2.61 1.035-.6.498-.9 1.09-.9 1.773 0 .78.288 1.377.864 1.791.576.414 1.308.621 2.196.621.588 0 1.149-.117 1.683-.35.534-.235.939-.562 1.215-.982.072.48.243.822.513 1.026.27.204.639.306 1.107.306.384 0 .744-.06 1.08-.18l.09-1.134zm49.032.09c.24 0 .48-.03.72-.09l-.09 1.134c-.336.12-.696.18-1.08.18-.468 0-.837-.102-1.107-.306-.27-.204-.441-.546-.513-1.026-.276.42-.681.747-1.215.981a4.148 4.148 0 01-1.683.351c-.888 0-1.62-.207-2.196-.62-.576-.415-.864-1.012-.864-1.792 0-.684.3-1.275.9-1.773.6-.498 1.47-.843 2.61-1.035l2.394-.396v-.504c0-.6-.186-1.08-.558-1.44-.372-.36-.888-.54-1.548-.54-.6 0-1.12.144-1.557.432-.438.288-.777.714-1.017 1.278l-1.062-.774c.24-.672.687-1.206 1.34-1.602q.982-.594 2.296-.594c1.068 0 1.926.258 2.574.774.648.516.972 1.278.972 2.286v4.428c0 .216.054.378.162.486.108.108.282.162.522.162zm-138.09 1.044h1.44v-9h-1.44v9zm25.134 1.512c-.348.864-.738 1.473-1.17 1.827-.432.354-.99.531-1.674.531-.456 0-.837-.06-1.143-.18a2.332 2.332 0 01-.837-.576l.504-1.224c.348.48.834.72 1.458.72.348 0 .657-.105.927-.315q.405-.315.71-1.143l.469-1.17-3.762-8.982h1.638l2.25 5.868.558 1.602.648-1.782 2.106-5.688h1.548l-4.23 10.512zm79.392-1.512h-1.44v-9h1.44v9zm9.456 0h1.44v-9h-1.44v9zm-172.41-7.488c.42-.348.942-.522 1.566-.522q.936 0 1.566.522c.42.348.63.798.63 1.35s-.21 1.002-.63 1.35q-.63.522-1.566.522c-.624 0-1.146-.174-1.566-.522a1.672 1.672 0 01-.63-1.35c0-.552.21-1.002.63-1.35zm51.486-.522c-.624 0-1.146.174-1.566.522q-.63.522-.63 1.35 0 .828.63 1.35c.42.348.942.522 1.566.522.624 0 1.146-.174 1.566-.522q.63-.522.63-1.35 0-.828-.63-1.35c-.42-.348-.942-.522-1.566-.522zm-27.738.072c-.912 0-1.626.306-2.142.918-.516.612-.774 1.452-.774 2.52s.258 1.908.774 2.52c.516.612 1.23.918 2.142.918.912 0 1.626-.306 2.142-.918.516-.612.774-1.452.774-2.52s-.258-1.908-.774-2.52c-.516-.612-1.23-.918-2.142-.918zm14.91.918c.516-.612 1.23-.918 2.142-.918.912 0 1.626.306 2.142.918.516.612.774 1.452.774 2.52s-.258 1.908-.774 2.52c-.516.612-1.23.918-2.142.918-.912 0-1.626-.306-2.142-.918-.516-.612-.774-1.452-.774-2.52s.258-1.908.774-2.52zm73.998-.918c-.912 0-1.626.306-2.142.918-.516.612-.774 1.452-.774 2.52s.258 1.908.774 2.52c.516.612 1.23.918 2.142.918.912 0 1.626-.306 2.142-.918.516-.612.774-1.452.774-2.52s-.258-1.908-.774-2.52c-.516-.612-1.23-.918-2.142-.918zm-121.398.018c-.792 0-1.431.234-1.917.702-.486.468-.783 1.128-.891 1.98h5.454c-.096-.84-.372-1.497-.828-1.97q-.684-.712-1.818-.712zm162.882 6.84c.876 0 1.566-.309 2.07-.927.504-.618.756-1.449.756-2.493 0-1.044-.252-1.875-.756-2.493-.504-.618-1.194-.927-2.07-.927-.864 0-1.551.3-2.061.9-.51.6-.765 1.404-.765 2.412v.216c0 1.008.255 1.812.765 2.412.51.6 1.197.9 2.06.9zm29.145-.9c-.51.6-1.197.9-2.061.9-.876 0-1.566-.309-2.07-.927q-.756-.927-.756-2.493 0-1.566.756-2.493c.504-.618 1.194-.927 2.07-.927.864 0 1.55.3 2.06.9.51.6.766 1.404.766 2.412v.216c0 1.008-.255 1.812-.765 2.412zm22.128 0c-.51.6-1.197.9-2.061.9q-1.314 0-2.07-.927c-.504-.618-.756-1.449-.756-2.493 0-1.044.252-1.875.756-2.493q.756-.927 2.07-.927c.864 0 1.55.3 2.06.9q.766.9.766 2.412v.216q0 1.512-.765 2.412zm-139.413.9c.756 0 1.407-.18 1.953-.54.546-.36.819-.828.819-1.404v-1.242l-2.016.378c-.804.144-1.404.351-1.8.621-.396.27-.594.615-.594 1.035 0 .372.144.657.432.855.288.198.69.297 1.206.297zm75.87 0c.756 0 1.407-.18 1.953-.54.546-.36.819-.828.819-1.404v-1.242l-2.016.378c-.804.144-1.404.351-1.8.621q-.594.405-.594 1.035 0 .558.432.855c.288.198.69.297 1.206.297zm51.705-.54c-.546.36-1.197.54-1.953.54-.516 0-.918-.099-1.206-.297q-.432-.297-.432-.855 0-.63.594-1.035c.396-.27.996-.477 1.8-.62l2.016-.379v1.242c0 .576-.273 1.044-.82 1.404zm-191.793 4.284c.912 0 1.632-.147 2.16-.44.528-.295.792-.652.792-1.072 0-.348-.135-.612-.405-.792-.27-.18-.73-.27-1.377-.27h-2.412c-.552 0-.978.1-1.278.297-.3.198-.45.471-.45.82 0 .455.252.812.756 1.07s1.242.387 2.214.387zm52.08-.44c-.528.293-1.248.44-2.16.44-.972 0-1.71-.129-2.214-.387q-.756-.387-.756-1.07c0-.349.15-.622.45-.82.3-.198.726-.297 1.278-.297h2.412q.972 0 1.377.27c.27.18.405.444.405.792 0 .42-.264.777-.792 1.071z" fill="#2F2830" fill-rule="evenodd"/>
<path class="i-brand__label" d="M14.649 16.08V7.896H7.52v2.112h4.848v.456c0 1.184-.392 2.088-1.176 2.712q-1.176.936-3.072.936-2.424 0-3.684-1.548c-.84-1.032-1.26-2.5-1.26-4.404q0-2.808 1.32-4.368 1.32-1.56 3.576-1.56c1.008 0 1.872.224 2.592.672q1.08.672 1.536 1.968l2.352-1.128c-.608-1.28-1.44-2.224-2.496-2.832C11 .304 9.657 0 8.025 0 6.52 0 5.2.332 4.065.996q-1.704.996-2.64 2.832Q.489 5.664.489 8.16q0 2.52.912 4.356c.608 1.224 1.464 2.164 2.568 2.82q1.656.984 3.864.984c1.136 0 2.112-.196 2.928-.588.816-.392 1.456-.948 1.92-1.668l.072 2.016h1.896zM116.937 0c1.52 0 2.844.328 3.972.984 1.128.656 1.996 1.6 2.604 2.832.608 1.232.912 2.68.912 4.344 0 1.664-.304 3.112-.912 4.344-.608 1.232-1.476 2.176-2.604 2.832-1.128.656-2.452.984-3.972.984q-2.28 0-3.96-.984c-1.12-.656-1.984-1.6-2.592-2.832q-.912-1.848-.912-4.344 0-2.496.912-4.344c.608-1.232 1.472-2.176 2.592-2.832 1.12-.656 2.44-.984 3.96-.984zm171.912 0c1.456 0 2.7.264 3.732.792s1.9 1.336 2.604 2.424l-1.944 1.752c-.448-.96-1.008-1.656-1.68-2.088q-1.008-.648-2.688-.648c-1.104 0-1.96.22-2.568.66-.608.44-.912 1.004-.912 1.692 0 .64.296 1.148.888 1.524.592.376 1.648.7 3.168.972 1.424.256 2.556.58 3.396.972.84.392 1.452.88 1.836 1.464.384.584.576 1.308.576 2.172 0 .928-.264 1.744-.792 2.448s-1.268 1.244-2.22 1.62q-1.428.564-3.3.564c-3.216 0-5.488-1.072-6.816-3.216l1.8-1.8q.768 1.44 1.98 2.112c.808.448 1.812.672 3.012.672 1.136 0 2.028-.196 2.676-.588.648-.392.972-.948.972-1.668 0-.576-.292-1.04-.876-1.392-.584-.352-1.604-.664-3.06-.936q-2.184-.408-3.48-1.008c-.864-.4-1.492-.896-1.884-1.488-.392-.592-.588-1.312-.588-2.16 0-.896.248-1.712.744-2.448q.744-1.104 2.148-1.752C286.509.216 287.6 0 288.849 0zM32.097 9.744h3.408l4.032 6.336h2.952l-4.296-6.624c1.072-.32 1.9-.86 2.484-1.62q.876-1.14.876-2.844c0-1.488-.496-2.652-1.488-3.492C39.073.66 37.72.24 36.009.24h-6.456v15.84h2.544V9.744zm37.128.264q0 3.12-1.656 4.716t-4.824 1.596c-2.112 0-3.72-.532-4.824-1.596-1.104-1.064-1.656-2.636-1.656-4.716V.24h2.592v9.456q0 2.256.948 3.324c.632.712 1.612 1.068 2.94 1.068 1.328 0 2.308-.356 2.94-1.068.632-.712.948-1.82.948-3.324V.24h2.592v9.768zM90.609.24c1.712 0 3.068.44 4.068 1.32q1.5 1.32 1.5 3.624 0 2.304-1.5 3.612c-1 .872-2.356 1.308-4.068 1.308H87.08v5.976h-2.568V.24h6.096zm68.04 15.84v-2.208h-9.24V9.168h6.96v-2.16h-6.96v-4.56h8.904V.24H146.84v15.84h11.808zm30.456 0h-2.352V6.912l.168-4.368h-.024l-4.824 13.536h-2.136l-4.824-13.536h-.024l.192 4.368v9.168h-2.376V.24h3.816l3.192 9.168 1.104 3.768h.048l1.128-3.768L185.36.24h3.744v15.84zm21.6-15.84q2.568 0 4.068 1.32 1.5 1.32 1.5 3.624 0 2.304-1.5 3.612-1.5 1.308-4.068 1.308h-3.528v5.976h-2.568V.24h6.096zm25.704 9.504H233v6.336h-2.544V.24h6.456c1.712 0 3.064.42 4.056 1.26q1.488 1.26 1.488 3.492c0 1.136-.292 2.084-.876 2.844-.584.76-1.412 1.3-2.484 1.62l4.296 6.624h-2.952l-4.032-6.336zm32.784 6.336v-2.208h-9.24V9.168h6.96v-2.16h-6.96v-4.56h8.904V.24h-11.472v15.84h11.808zm49.416-4.152h-6.672l-1.512 4.152h-2.64L313.76.24h3.072l5.976 15.84h-2.712l-1.488-4.152zm23.76-2.184h-3.408v6.336h-2.544V.24h6.456c1.712 0 3.064.42 4.056 1.26.992.84 1.488 2.004 1.488 3.492q0 1.704-.876 2.844t-2.484 1.62l4.296 6.624H346.4l-4.032-6.336zm20.976 6.336h2.568V.24h-2.568v15.84zm20.352-4.152h6.672l1.488 4.152h2.712L388.593.24h-3.072l-5.976 15.84h2.64l1.512-4.152zm35.784 1.944v2.208h-11.304V.24h2.568v13.632h8.736zM113.433 3.792q1.272-1.56 3.504-1.56c1.504 0 2.68.52 3.528 1.56.848 1.04 1.272 2.496 1.272 4.368 0 1.872-.424 3.328-1.272 4.368-.848 1.04-2.024 1.56-3.528 1.56q-2.232 0-3.504-1.56c-.848-1.04-1.272-2.496-1.272-4.368 0-1.872.424-3.328 1.272-4.368zM32.097 7.608h3.696q1.56 0 2.328-.636c.512-.424.768-1.076.768-1.956 0-.88-.256-1.532-.768-1.956q-.768-.636-2.328-.636h-3.696v5.184zm60.6-.372q-.816.684-2.496.684h-3.12V2.424h3.12c2.208 0 3.312.92 3.312 2.76 0 .912-.272 1.596-.816 2.052zm120.096 0q-.816.684-2.496.684h-3.12V2.424h3.12q3.312 0 3.312 2.76 0 1.368-.816 2.052zm23.904.372H233V2.424h3.696q1.56 0 2.328.636c.512.424.768 1.076.768 1.956 0 .88-.256 1.532-.768 1.956q-.768.636-2.328.636zm105.96 0h-3.696V2.424h3.696q1.56 0 2.328.636c.512.424.768 1.076.768 1.956 0 .88-.256 1.532-.768 1.956q-.768.636-2.328.636zm-26.64-2.856l1.824 5.088h-5.16l1.872-5.136.672-2.232h.072l.72 2.28zM389.6 9.84l-1.824-5.088-.72-2.28h-.072l-.672 2.232-1.872 5.136h5.16z" fill="#2F2830" fill-rule="evenodd"/></svg>
